HIERARCHY
ROOT hip
{
	OFFSET 0.000000 0.000000 0.000000 
	CHANNELS 6 Xposition Yposition Zposition Xrotation Zrotation Yrotation
	JOINT abdomen
	{
		OFFSET 0.000000 3.402643 0.000000 
		CHANNELS 3 Xrotation Zrotation Yrotation
		JOINT chest
		{
			OFFSET 0.000000 8.438565 -0.680529 
			CHANNELS 3 Xrotation Zrotation Yrotation
			JOINT neck
			{
				OFFSET 0.000000 10.207942 -0.272212 
				CHANNELS 3 Xrotation Zrotation Yrotation
				JOINT head
				{
					OFFSET 0.000000 3.130431 0.000000 
					CHANNELS 3 Xrotation Zrotation Yrotation
					End Site
					{
						OFFSET 0.000000 3.130435 0.000000 
					}
				}
			}
			JOINT lCollar
			{
				OFFSET 3.470700 6.669187 -0.816635 
				CHANNELS 3 Yrotation Zrotation Xrotation
				JOINT lShldr
				{
					OFFSET 3.198488 0.000000 0.000000 
					CHANNELS 3 Zrotation Yrotation Xrotation
					JOINT lForeArm
					{
						OFFSET 10.139888 0.000000 0.000000 
						CHANNELS 3 Yrotation Zrotation Xrotation
						JOINT lHand
						{
							OFFSET 8.370511 0.000000 0.000000 
							CHANNELS 3 Zrotation Yrotation Xrotation
							End Site
							{
								OFFSET 4.083176 0.000000 0.000000 
							}
						}
					}
				}
			}
			JOINT rCollar
			{
				OFFSET -3.470700 6.669187 -0.816635 
				CHANNELS 3 Yrotation Zrotation Xrotation
				JOINT rShldr
				{
					OFFSET -3.198488 0.000000 0.000000 
					CHANNELS 3 Zrotation Yrotation Xrotation
					JOINT rForeArm
					{
						OFFSET -10.139888 0.000000 0.000000 
						CHANNELS 3 Yrotation Zrotation Xrotation
						JOINT rHand
						{
							OFFSET -8.370511 0.000000 0.000000 
							CHANNELS 3 Zrotation Yrotation Xrotation
							End Site
							{
								OFFSET -4.083176 0.000000 0.000000 
							}
						}
					}
				}
			}
		}
	}
	JOINT lThigh
	{
		OFFSET 5.308129 -1.633274 1.361059 
		CHANNELS 3 Xrotation Zrotation Yrotation
		JOINT lShin
		{
			OFFSET -2.041588 -20.007561 0.000000 
			CHANNELS 3 Xrotation Zrotation Yrotation
			JOINT lFoot
			{
				OFFSET 0.000000 -19.190928 -1.224953 
				CHANNELS 3 Xrotation Yrotation Zrotation
				End Site
				{
					OFFSET 0.000000 -2.449906 4.627600 
				}
			}
		}
	}
	JOINT rThigh
	{
		OFFSET -5.308129 -1.633274 1.361059 
		CHANNELS 3 Xrotation Zrotation Yrotation
		JOINT rShin
		{
			OFFSET 2.041588 -20.007561 0.000000 
			CHANNELS 3 Xrotation Zrotation Yrotation
			JOINT rFoot
			{
				OFFSET 0.000000 -19.190928 -1.224953 
				CHANNELS 3 Xrotation Yrotation Zrotation
				End Site
				{
					OFFSET 0.000000 -2.449906 4.627600 
				}
			}
		}
	}
}
MOTION
Frames: 15
Frame Time: 0.031250
0.988776 36.098347 -8.270329 0.000000 0.000000 0.000000 41.349251 0.920450 0.320700 -9.435300 0.640850 -0.169500 0.000000 0.000000 0.000000 -18.000000 0.000000 0.000000 2.335700 -5.745350 -0.063050 -51.805901 -26.341351 70.002953 -4.979250 24.711948 -77.203400 16.905001 -1.775450 1.160700 -2.389450 5.936500 -0.100900 50.866898 16.299351 54.785000 11.507950 -42.242851 -77.888855 0.662400 -11.827450 -11.095300 -58.745300 20.330399 -15.964601 92.835846 -1.452950 -7.715800 -32.864151 13.369949 -19.232899 -61.844299 -23.365250 21.087299 94.486198 1.032700 7.380600 -27.636000 -5.065600 23.614000 
0.896489 37.377163 -8.342839 0.000000 0.000000 0.000000 40.300098 0.634700 0.156200 -10.653700 0.263500 -0.235000 0.000000 0.000000 0.000000 -18.000000 0.000000 0.000000 2.659000 -5.792500 -0.058000 -54.929600 -23.327101 68.062302 -2.483100 21.712799 -78.046501 19.656401 -2.712900 0.970600 -2.757000 6.182700 -0.138400 52.413700 15.934900 56.286999 9.196100 -30.476700 -78.539803 0.765800 -11.607700 -9.923200 -55.967999 20.183100 -14.934900 88.279800 -1.738500 -7.369200 -30.872499 13.763000 -18.854099 -59.027199 -22.882900 19.679800 90.399597 1.303600 7.101600 -25.890400 -5.892800 22.822201 
0.797612 38.655979 -8.415349 0.000000 0.000000 0.000000 39.334599 0.429650 0.078100 -11.742800 0.000250 -0.254300 0.000000 0.000000 0.000000 -18.000000 0.000000 0.000000 2.471350 -5.502400 -0.047900 -57.875851 -21.802851 66.103455 -2.446600 25.129749 -77.562302 22.407749 -3.650300 0.780500 -2.376900 5.671800 -0.158350 52.717850 17.714851 57.407051 9.152349 -33.466850 -77.330002 0.869150 -11.388000 -8.751050 -53.190651 20.035801 -13.905200 83.723755 -2.024050 -7.022650 -28.880899 14.156050 -18.475300 -56.210098 -22.400551 18.272301 86.313004 1.574500 6.822650 -24.144800 -6.719950 22.030451 
0.698735 39.934792 -8.487860 0.000000 0.000000 0.000000 38.369099 0.224600 0.000000 -12.831900 -0.263000 -0.273600 0.000000 0.000000 0.000000 -18.000000 0.000000 0.000000 2.283700 -5.212300 -0.037800 -60.822102 -20.278601 64.144600 -2.410100 28.546700 -77.078102 25.159100 -4.587700 0.590400 -1.996800 5.160900 -0.178300 53.021999 19.494801 58.527100 9.108600 -36.457001 -76.120201 0.972500 -11.168300 -7.578900 -50.413300 19.888500 -12.875500 79.167702 -2.309600 -6.676100 -26.889299 14.549100 -18.096500 -53.393002 -21.918200 16.864799 82.226402 1.845400 6.543700 -22.399200 -7.547100 21.238701 
0.573489 41.370682 -8.586739 0.000000 0.000000 0.000000 37.062599 -0.098850 -0.111150 -14.220300 -0.573500 -0.115000 0.000000 0.000000 0.000000 -18.000000 0.000000 0.000000 2.148050 -5.455250 -0.052950 -61.921051 -20.887751 57.199600 -1.935800 29.109749 -74.515450 18.990601 -1.737200 0.751300 -2.009350 5.425600 -0.120850 54.761452 20.075649 60.511452 7.869100 -35.144001 -73.702545 1.302550 -11.937099 -9.644250 -46.423599 19.899250 -11.429050 72.311302 -2.744600 -6.148450 -23.817150 14.657850 -17.597099 -49.534599 -21.680901 14.952650 76.068604 2.270600 6.121500 -19.720249 -7.895900 20.166451 
0.448245 43.929447 -8.685615 0.000000 0.000000 0.000000 35.756100 -0.422300 -0.222300 -15.608700 -0.884000 0.043600 0.000000 0.000000 0.000000 -18.000000 0.000000 0.000000 2.012400 -5.698200 -0.068100 -63.020000 -21.496901 50.254601 -1.461500 29.672800 -71.952797 12.822100 1.113300 0.912200 -2.021900 5.690300 -0.063400 56.500900 20.656500 62.495800 6.629600 -33.831001 -71.284897 1.632600 -12.705900 -11.709600 -42.433899 19.910000 -9.982600 65.454903 -3.179600 -5.620800 -20.745001 14.766600 -17.097700 -45.676201 -21.443600 13.040500 69.910797 2.695800 5.699300 -17.041300 -8.244700 19.094200 
0.817388 47.542492 -6.246636 0.000000 0.000000 0.000000 34.292702 -1.139900 -0.464000 -19.210850 -1.591600 0.258000 0.000000 0.000000 0.000000 -18.000000 0.000000 0.000000 2.012400 -5.698200 -0.068100 -14.095350 -24.266251 10.487500 -4.163250 31.208000 -60.974949 12.946550 1.010750 0.907400 -2.061200 5.611750 -0.065950 12.223499 23.980251 22.562599 7.082550 -31.762600 -67.357544 1.588350 -12.697599 -11.029650 -30.680599 18.820549 -6.423900 49.900551 -3.190600 -4.110600 -16.522650 14.713900 -16.017050 -32.501152 -21.204550 8.367300 52.754398 2.832050 4.068800 -12.184050 -7.947300 18.373550 
1.186531 50.850872 -3.807657 0.000000 0.000000 0.000000 32.829300 -1.857500 -0.705700 -22.813000 -2.299200 0.472400 0.000000 0.000000 0.000000 -18.000000 0.000000 0.000000 2.012400 -5.698200 -0.068100 34.829300 -27.035601 -29.279600 -6.865000 32.743198 -49.997101 13.071000 0.908200 0.902600 -2.100500 5.533200 -0.068500 -32.053902 27.304001 -17.370600 7.535500 -29.694201 -63.430199 1.544100 -12.689300 -10.349700 -18.927299 17.731100 -2.865200 34.346199 -3.201600 -2.600400 -12.300300 14.661200 -14.936400 -19.326099 -20.965500 3.694100 35.598000 2.968300 2.438300 -7.326800 -7.649900 17.652901 
0.988776 69.486847 -1.170922 0.000000 0.000000 0.000000 16.407101 -1.570400 -0.448700 -17.608601 -2.038800 0.458700 0.000000 0.000000 0.000000 -12.000000 0.000000 0.000000 2.015600 -5.695500 -0.066500 79.057198 -34.778900 -70.308701 -12.386600 34.348999 -56.310902 11.597900 0.417600 0.431500 -2.106200 5.524900 -0.099800 -69.490898 31.134701 -64.006798 10.153400 -25.276699 -66.628098 0.692400 -14.053200 -10.717600 -15.540500 11.525300 -0.399400 27.540400 -3.359800 -2.040700 14.678600 7.410400 -6.533000 -5.306300 -15.953100 -1.217400 20.979900 3.133500 1.205300 20.497999 -0.033400 8.717000 
0.698735 79.636688 -1.043481 0.000000 0.000000 0.000000 10.720700 -1.143233 -0.332667 -17.835768 -0.477400 0.177333 0.000000 0.000000 0.000000 -9.000000 0.000000 0.000000 2.017167 -5.694200 -0.065700 74.662201 -33.396568 -64.595070 -21.706234 36.109867 -58.443401 11.757300 0.701233 0.424767 -2.089400 5.560033 -0.114167 -66.070663 31.388233 -67.358330 20.503233 -22.272165 -70.040230 0.725567 -14.147766 -11.790500 -17.790033 11.337867 -0.987000 33.102299 -3.508000 -2.609167 10.552033 5.409400 -6.285367 -12.550600 -14.227533 0.049167 32.700134 3.288700 2.393967 10.060866 -0.654667 7.463733 
0.408693 83.829552 -0.916037 0.000000 0.000000 0.000000 5.034300 -0.716067 -0.216633 -18.062935 1.084000 -0.104033 0.000000 0.000000 0.000000 -6.000000 0.000000 0.000000 2.018733 -5.692900 -0.064900 70.267197 -32.014236 -58.881435 -31.025867 37.870735 -60.575901 11.916700 0.984867 0.418033 -2.072600 5.595167 -0.128533 -62.650433 31.641766 -70.709869 30.853065 -19.267632 -73.452362 0.758733 -14.242332 -12.863400 -20.039566 11.150434 -1.574600 38.664200 -3.656200 -3.177633 6.425467 3.408400 -6.037733 -19.794899 -12.501966 1.315733 44.420364 3.443900 3.582633 -0.376267 -1.275933 6.210466 
0.118653 84.611427 -0.788596 0.000000 0.000000 0.000000 -0.652100 -0.288900 -0.100600 -18.290100 2.645400 -0.385400 0.000000 0.000000 0.000000 -3.000000 0.000000 0.000000 2.020300 -5.691600 -0.064100 65.872200 -30.631901 -53.167801 -40.345501 39.631599 -62.708401 12.076100 1.268500 0.411300 -2.055800 5.630300 -0.142900 -59.230202 31.895300 -74.061401 41.202900 -16.263100 -76.864502 0.791900 -14.336900 -13.936300 -22.289101 10.963000 -2.162200 44.226101 -3.804400 -3.746100 2.298900 1.407400 -5.790100 -27.039200 -10.776400 2.582300 56.140598 3.599100 4.771300 -10.813400 -1.897200 4.957200 
-0.036255 83.999130 -0.861106 0.000000 0.000000 0.000000 -1.845400 -0.013475 -0.008975 -15.743750 2.141450 -0.310575 0.000000 0.000000 0.000000 -2.250000 0.000000 0.000000 2.020700 -5.691275 -0.063925 65.211998 -30.508526 -48.512100 -43.222252 40.930149 -63.099350 12.115951 1.339400 0.409600 -2.051600 5.639075 -0.146500 -58.375153 31.958675 -74.899277 44.948776 -16.675825 -77.375549 0.800200 -14.360550 -12.083850 -24.206076 10.985525 -2.475400 50.263527 -3.723700 -4.364425 -2.017000 0.948175 -5.511450 -28.889351 -10.673975 2.867650 59.589725 3.541975 5.121625 -13.885975 -1.731125 4.777975 
-0.191163 81.892784 -0.933616 0.000000 0.000000 0.000000 -3.038700 0.261950 0.082650 -13.197400 1.637500 -0.235750 0.000000 0.000000 0.000000 -1.500000 0.000000 0.000000 2.021100 -5.690950 -0.063750 64.551796 -30.385151 -43.856400 -46.099003 42.228699 -63.490299 12.155801 1.410300 0.407900 -2.047400 5.647850 -0.150100 -57.520103 32.022049 -75.737152 48.694653 -17.088551 -77.886597 0.808500 -14.384200 -10.231400 -26.123051 11.008050 -2.788600 56.300953 -3.643000 -4.982750 -6.332900 0.488950 -5.232800 -30.739500 -10.571550 3.153000 63.038853 3.484850 5.471950 -16.958549 -1.565050 4.598750 
-0.346071 77.663345 -1.006126 0.000000 0.000000 0.000000 -4.232000 0.537375 0.174275 -10.651051 1.133550 -0.160925 0.000000 0.000000 0.000000 -0.750000 0.000000 0.000000 2.021500 -5.690625 -0.063575 63.891598 -30.261776 -39.200699 -48.975754 43.527252 -63.881248 12.195650 1.481200 0.406200 -2.043200 5.656625 -0.153700 -56.665054 32.085426 -76.575027 52.440529 -17.501274 -78.397644 0.816800 -14.407850 -8.378950 -28.040026 11.030575 -3.101800 62.338379 -3.562300 -5.601075 -10.648800 0.029725 -4.954150 -32.589649 -10.469126 3.438350 66.487976 3.427725 5.822275 -20.031124 -1.398975 4.419525 
